<svg width="14" height="9" viewBox="0 0 14 9" fill="none" xmlns="http://www.w3.org/2000/svg">
<path d="M0.636536 1.27414C0.824063 1.08667 1.07837 0.981354 1.34353 0.981354C1.6087 0.981354 1.86301 1.08667 2.05053 1.27414L7.00053 6.22414L11.9505 1.27414C12.1391 1.09198 12.3917 0.991187 12.6539 0.993466C12.9161 0.995744 13.1669 1.10091 13.3523 1.28632C13.5377 1.47173 13.6429 1.72254 13.6452 1.98474C13.6475 2.24694 13.5467 2.49954 13.3645 2.68814L7.70752 8.34514C7.52 8.53261 7.26569 8.63793 7.00053 8.63793C6.73536 8.63793 6.48105 8.53261 6.29353 8.34514L0.636536 2.68814C0.449065 2.50061 0.34375 2.2463 0.34375 1.98114C0.34375 1.71598 0.449065 1.46167 0.636536 1.27414Z" fill="#7C7BDA"/>
</svg>
