<svg width="14" height="8" viewBox="0 0 14 8" fill="none" xmlns="http://www.w3.org/2000/svg">
<path d="M13.3635 7.68811C13.1759 7.87558 12.9216 7.9809 12.6565 7.9809C12.3913 7.9809 12.137 7.87558 11.9495 7.68811L6.99947 2.73811L2.04948 7.68811C1.86088 7.87027 1.60828 7.97106 1.34608 7.96878C1.08388 7.96651 0.833072 7.86134 0.647664 7.67593C0.462256 7.49052 0.357089 7.23971 0.354811 6.97751C0.352532 6.71531 0.453326 6.46271 0.635484 6.27411L6.29248 0.617109C6.48 0.429638 6.73431 0.324323 6.99947 0.324323C7.26464 0.324323 7.51895 0.429638 7.70647 0.617109L13.3635 6.27411C13.5509 6.46164 13.6562 6.71595 13.6562 6.98111C13.6562 7.24627 13.5509 7.50058 13.3635 7.68811Z" fill="#7C7BDA"/>
</svg>
