<?xml version="1.0" encoding="UTF-8" standalone="no"?>
<!-- Created with Inkscape (http://www.inkscape.org/) -->

<svg
   width="48pt"
   height="48pt"
   viewBox="0 0 16.933334 16.933333"
   version="1.1"
   id="svg979"
   inkscape:version="1.1.2 (1:1.1+202202050950+0a00cf5339)"
   sodipodi:docname="6 - Mastery Point.svg"
   inkscape:export-filename="/media/taufikramadhan/Data/Tr Design Studio/Upwork/2022/006 - David Borch Kongshaug/Revisi/10 - Revisi 9/Send/1 - Line/6 - Mastery Point.png"
   inkscape:export-xdpi="768"
   inkscape:export-ydpi="768"
   xmlns:inkscape="http://www.inkscape.org/namespaces/inkscape"
   xmlns:sodipodi="http://sodipodi.sourceforge.net/DTD/sodipodi-0.dtd"
   xmlns="http://www.w3.org/2000/svg"
   xmlns:svg="http://www.w3.org/2000/svg"
   xmlns:rdf="http://www.w3.org/1999/02/22-rdf-syntax-ns#"
   xmlns:cc="http://creativecommons.org/ns#"
   xmlns:dc="http://purl.org/dc/elements/1.1/">
  <defs
     id="defs973" />
  <sodipodi:namedview
     id="base"
     pagecolor="#ffffff"
     bordercolor="#666666"
     borderopacity="1.0"
     inkscape:pageopacity="0.0"
     inkscape:pageshadow="2"
     inkscape:zoom="6.6869893"
     inkscape:cx="42.171445"
     inkscape:cy="49.200019"
     inkscape:document-units="pt"
     inkscape:current-layer="layer1"
     showgrid="false"
     units="pt"
     inkscape:window-width="1366"
     inkscape:window-height="705"
     inkscape:window-x="0"
     inkscape:window-y="31"
     inkscape:window-maximized="1"
     inkscape:pagecheckerboard="0"
     inkscape:snap-bbox="true"
     inkscape:snap-nodes="false"
     inkscape:bbox-nodes="true">
    <inkscape:grid
       type="xygrid"
       id="grid1526" />
    <sodipodi:guide
       position="0.97013909,15.963209"
       orientation="56.666615,0"
       id="guide1528"
       inkscape:locked="false" />
    <sodipodi:guide
       position="0.97013909,0.97016731"
       orientation="0,56.666667"
       id="guide1530"
       inkscape:locked="false" />
    <sodipodi:guide
       position="15.963195,0.97016731"
       orientation="-56.666615,0"
       id="guide1532"
       inkscape:locked="false" />
    <sodipodi:guide
       position="15.963195,15.963209"
       orientation="0,-56.666667"
       id="guide1534"
       inkscape:locked="false" />
  </sodipodi:namedview>
  <metadata
     id="metadata976">
    <rdf:RDF>
      <cc:Work
         rdf:about="">
        <dc:format>image/svg+xml</dc:format>
        <dc:type
           rdf:resource="http://purl.org/dc/dcmitype/StillImage" />
      </cc:Work>
    </rdf:RDF>
  </metadata>
  <g
     inkscape:label="Layer 1"
     inkscape:groupmode="layer"
     id="layer1"
     transform="translate(0,-280.06668)">
    <path
       style="color:#000000;display:inline;fill:#000000;stroke-width:0.999999;stroke-linecap:round;stroke-linejoin:round;-inkscape-stroke:none"
       d="m 8.4678748,281.28704 c -0.7740358,0 -1.5478814,0.3962 -1.9426471,1.18879 l -0.8770907,1.75659 c -0.1965586,0.39465 -0.5699785,0.671 -1.0051507,0.74179 l -1.8749928,0.30444 c -1.7410894,0.2832 -2.41459105,2.48227 -1.130794,3.692 l 1.3820817,1.30234 c 0.3180498,0.2997 0.467669,0.73755 0.4010939,1.16945 l -0.2875311,1.875 c -0.2676351,1.73633 1.6160916,3.04908 3.1507609,2.19394 l 1.5826292,-0.88435 c 0.3735628,-0.20816 0.8273024,-0.20816 1.2008652,0 l 1.5850457,0.88435 c 1.53467,0.85514 3.418396,-0.45761 3.150761,-2.19394 l -0.289947,-1.875 c -0.06658,-0.4319 0.08305,-0.86975 0.401093,-1.16945 l 1.382083,-1.30234 c 1.283796,-1.20973 0.610294,-3.4088 -1.130795,-3.692 l -1.874993,-0.30444 c -0.435172,-0.0708 -0.808592,-0.34714 -1.005151,-0.74179 l -0.874674,-1.75659 c -0.394766,-0.79259 -1.1686114,-1.18879 -1.9426472,-1.18879 z m 0,0.6258 c 0.5366526,0 1.0719493,0.28362 1.3555037,0.85293 l 0.8770905,1.75902 c 0.290211,0.58268 0.843467,0.99005 1.485981,1.09454 l 1.874992,0.30446 c 1.247149,0.20284 1.704863,1.70432 0.785275,2.57086 l -1.382083,1.30235 c -0.474345,0.44697 -0.698516,1.10037 -0.599225,1.74451 l 0.289948,1.87741 c 0.19116,1.24019 -1.090536,2.1306 -2.186686,1.51981 l -1.5826297,-0.88192 c -0.5708625,-0.3181 -1.2678868,-0.3181 -1.8387492,0 l -1.5826292,0.88192 c -1.0961501,0.61079 -2.3778466,-0.27962 -2.1866861,-1.51981 l 0.2899473,-1.87741 c 0.099292,-0.64414 -0.1248798,-1.29754 -0.5992245,-1.74451 l -1.3820822,-1.30235 c -0.9195897,-0.86654 -0.4594596,-2.36802 0.7876902,-2.57086 l 1.8749927,-0.30446 c 0.6425131,-0.10453 1.1957696,-0.51186 1.4859801,-1.09454 l 0.8746745,-1.75902 c 0.2835543,-0.56931 0.8212673,-0.85293 1.3579199,-0.85293 z"
       id="path55440" />
  </g>
</svg>
